HIERARCHY
ROOT Hips
{
	OFFSET	0.00	0.00	0.00
	CHANNELS 6 Xposition Yposition Zposition Zrotation Xrotation Yrotation
	JOINT LeftUpLeg
	{
		OFFSET	 0.126116	-0.014019	-0.065224
		CHANNELS 3 Zrotation Xrotation Yrotation
		JOINT LeftLeg
		{
			OFFSET	 0.000000	 0.000000	 0.569914
			CHANNELS 3 Zrotation Xrotation Yrotation
			JOINT LeftFoot
			{
				OFFSET	 0.000000	 0.000000	 0.544423
				CHANNELS 3 Zrotation Xrotation Yrotation
				JOINT LeftToeBase
				{
					OFFSET	 0.000000	 0.000000	 0.207117
					CHANNELS 3 Zrotation Xrotation Yrotation
					End Site
					{
						OFFSET	 0.000000	 0.000000	 0.207117
					}
				}
			}
		}
	}
	JOINT RightUpLeg
	{
		OFFSET	-0.124023	-0.008373	-0.065224
		CHANNELS 3 Zrotation Xrotation Yrotation
		JOINT RightLeg
		{
			OFFSET	 0.000000	 0.000000	 0.570047
			CHANNELS 3 Zrotation Xrotation Yrotation
			JOINT RightFoot
			{
				OFFSET	 0.000000	 0.000000	 0.544354
				CHANNELS 3 Zrotation Xrotation Yrotation
				JOINT RightToeBase
				{
					OFFSET	 0.000000	 0.000000	 0.207540
					CHANNELS 3 Zrotation Xrotation Yrotation
					End Site
					{
						OFFSET	 0.000000	 0.000000	 0.207540
					}
				}
			}
		}
	}
	JOINT Spine
	{
		OFFSET	 0.000184	-0.007763	 0.117403
		CHANNELS 3 Zrotation Xrotation Yrotation
		JOINT Spine1
		{
			OFFSET	 0.000000	 0.000000	 0.137269
			CHANNELS 3 Zrotation Xrotation Yrotation
			JOINT Spine2
			{
				OFFSET	 0.000000	 0.000000	 0.156879
				CHANNELS 3 Zrotation Xrotation Yrotation
				JOINT LeftShoulder
				{
					OFFSET	 0.080501	-0.002496	 0.160144
					CHANNELS 3 Zrotation Xrotation Yrotation
					JOINT LeftArm
					{
						OFFSET	 0.000000	 0.000000	 0.164363
						CHANNELS 3 Zrotation Xrotation Yrotation
						JOINT LeftForeArm
						{
							OFFSET	 0.000000	 0.000000	 0.364576
							CHANNELS 3 Zrotation Xrotation Yrotation
							JOINT LeftHand
							{
								OFFSET	 0.000000	 0.000000	 0.360812
								CHANNELS 3 Zrotation Xrotation Yrotation
								JOINT LeftHandIndex1
								{
									OFFSET	 0.000000	 0.000000	 0.086006
									CHANNELS 3 Zrotation Xrotation Yrotation
									JOINT LeftHandIndex2
									{
										OFFSET	 0.000000	 0.000000	 0.047236
										CHANNELS 3 Zrotation Xrotation Yrotation
										JOINT LeftHandIndex3
										{
											OFFSET	-0.004284	-0.000551	 0.038166
											CHANNELS 3 Zrotation Xrotation Yrotation
											End Site
											{
												OFFSET	-0.004284	-0.000551	 0.038166
											}
										}
									}
								}
							}
						}
					}
				}
				JOINT Neck
				{
					OFFSET	 0.000000	 0.000000	 0.176489
					CHANNELS 3 Zrotation Xrotation Yrotation
					JOINT Head
					{
						OFFSET	 0.000000	-0.001747	 0.077940
						CHANNELS 3 Zrotation Xrotation Yrotation
						End Site
						{
							OFFSET	 0.000000	-0.001747	 0.077940
						}
					}
				}
				JOINT RightShoulder
				{
					OFFSET	-0.080363	 0.000306	 0.159706
					CHANNELS 3 Zrotation Xrotation Yrotation
					JOINT RightArm
					{
						OFFSET	 0.000000	 0.000000	 0.164196
						CHANNELS 3 Zrotation Xrotation Yrotation
						JOINT RightForeArm
						{
							OFFSET	 0.000000	 0.000000	 0.365611
							CHANNELS 3 Zrotation Xrotation Yrotation
							JOINT RightHand
							{
								OFFSET	 0.000000	 0.000000	 0.360648
								CHANNELS 3 Zrotation Xrotation Yrotation
								JOINT RightHandIndex1
								{
									OFFSET	 0.000000	 0.000000	 0.069977
									CHANNELS 3 Zrotation Xrotation Yrotation
									JOINT RightHandIndex2
									{
										OFFSET	 0.000000	 0.000000	 0.052305
										CHANNELS 3 Zrotation Xrotation Yrotation
										JOINT RightHandIndex3
										{
											OFFSET	 0.009002	-0.000782	 0.042196
											CHANNELS 3 Zrotation Xrotation Yrotation
											End Site
											{
												OFFSET	 0.009002	-0.000782	 0.042196
											}
										}
									}
								}
							}
						}
					}
				}
			}
		}
	}
}
MOTION
Frames:    10
Frame Time: 0.03333334
 6.897654	 4.150926	-0.508346	-172.168800	-2.112797	 0.138584	 6.512339	-2.306012	-178.534400	-2.470865	-35.546760	 1.268041	 10.913940	 89.827540	-9.860406	-2.376203	 30.418320	-0.043076	 1.587724	-29.582450	 179.454800	 21.102950	-72.751400	 24.560080	 177.764900	 89.249830	-170.433300	 2.378721	 29.646520	 0.027444	-2.458777	 4.373626	 1.276412	-3.252949	-1.839438	 0.914887	-2.596952	-4.507083	-0.273253	-91.797060	 78.084310	 178.904100	 35.696650	 63.577610	-47.485170	-9.005182	-4.208036	-29.332750	 3.644717	-2.111331	-5.366219	-3.812334	 37.924440	-2.927599	-2.450526	 36.184240	 0.754587	-1.378229	 35.397820	-2.634230	-0.317630	 4.043035	-1.863377	-0.216517	-11.826830	-1.615469	 89.793230	 78.742240	 179.527100	-41.822490	 71.359970	 43.860320	 1.667068	-7.560375	 25.691310	-13.105500	-3.209853	 9.586319	 6.437017	 35.671460	-0.771858	 2.830251	 35.756010	-7.813440	-2.350882	 35.473990	 5.254307
 6.892871	 4.173527	-0.509852	-172.058700	-1.971563	-0.190079	 6.222786	-0.587920	-178.031600	-2.768791	-34.217120	 1.052849	 100.076000	 90.000000	-99.321690	-2.376552	 30.353400	-0.041626	 1.801071	-31.046720	 179.588400	 17.542350	-69.856850	 20.880920	-178.754000	 88.811550	-173.774300	 2.377945	 29.799220	 0.030807	-2.502994	 4.352642	 1.639759	-3.332499	-1.882803	 0.891815	-2.606426	-4.556337	-0.275362	-91.786880	 78.312520	 178.851800	 35.444310	 62.981750	-48.025860	-8.837705	-4.338282	-30.213470	 3.727288	-2.109464	-5.366474	-3.812334	 37.924440	-2.927599	-2.450526	 36.184240	 0.754587	-1.378229	 35.397820	-2.634230	-0.334105	 4.090279	-2.096303	-0.149561	-11.981060	-1.485983	 89.788970	 78.516060	 179.492700	-41.734590	 71.414570	 43.397230	 1.773846	-7.627850	 26.257700	-12.948340	-3.205064	 9.589299	 6.437017	 35.671460	-0.771858	 2.830251	 35.756010	-7.813440	-2.350882	 35.473990	 5.254307
 6.887791	 4.198379	-0.511162	-171.944900	-1.786621	-0.496575	 6.029787	 1.496658	-177.527900	-3.020781	-32.246010	 0.950288	 21.203120	 89.868780	-20.589840	-2.376129	 30.433260	-0.043404	 1.956655	-32.366180	 179.721500	 14.457200	-66.267550	 17.551850	-175.891500	 88.871350	-176.486300	 2.377717	 29.844720	 0.031818	-2.541791	 4.302668	 1.994552	-3.410896	-1.922490	 0.865425	-2.624648	-4.599277	-0.278264	-91.775650	 78.536870	 178.800600	 35.142270	 62.386800	-48.561530	-8.693134	-4.466937	-31.050200	 3.812551	-2.103209	-5.367493	-3.812334	 37.924440	-2.927599	-2.450526	 36.184240	 0.754587	-1.378229	 35.397820	-2.634230	-0.355659	 4.158721	-2.330104	-0.094097	-12.146760	-1.396427	 89.784190	 78.294520	 179.467500	-41.670060	 71.482310	 42.995620	 1.876186	-7.678027	 26.730820	-12.809820	-3.201260	 9.591750	 6.437017	 35.671460	-0.771858	 2.830251	 35.756010	-7.813440	-2.350882	 35.473990	 5.254307
 6.883454	 4.220657	-0.512145	-171.858200	-1.609038	-0.679178	 5.970869	 3.528372	-177.210300	-3.224309	-30.062060	 0.931568	 13.387270	 89.695450	-12.796590	-2.374339	 30.761010	-0.050710	 2.057989	-33.360810	 179.768900	 12.348910	-62.787430	 15.155940	-171.976100	 89.068330	 179.750400	 2.378509	 29.687950	 0.028360	-2.562482	 4.238358	 2.215448	-3.459685	-1.948165	 0.845158	-2.642596	-4.625823	-0.280775	-91.767770	 78.681570	 178.770600	 34.925710	 61.880520	-49.039360	-8.653990	-4.504604	-31.688220	 3.762187	-2.098921	-5.368383	-3.812334	 37.924440	-2.927599	-2.450526	 36.184240	 0.754587	-1.378229	 35.397820	-2.634230	-0.368018	 4.226036	-2.506925	-0.065205	-12.278150	-1.356975	 89.780830	 78.148100	 179.453900	-41.628200	 71.553380	 42.717320	 1.953343	-7.703712	 27.012340	-12.721260	-3.198909	 9.593066	 6.437017	 35.671460	-0.771858	 2.830251	 35.756010	-7.813440	-2.350882	 35.473990	 5.254307
 6.879056	 4.244660	-0.513055	-171.780900	-1.393199	-0.806733	 6.072046	 5.866366	-177.022300	-3.419253	-27.315640	 0.993545	 9.501558	 89.345690	-8.779963	-2.371023	 31.341260	-0.063741	 2.184062	-34.216470	 179.752700	 10.624200	-58.886200	 13.103030	-165.001800	 89.283450	 172.972800	 2.382318	 28.902750	 0.011159	-2.562830	 4.144311	 2.369329	-3.484508	-1.982237	 0.831816	-2.652129	-4.644842	-0.282225	-91.762450	 78.776420	 178.757400	 34.737050	 61.384960	-49.518910	-8.650780	-4.501189	-32.246190	 3.653122	-2.116337	-5.365353	-3.812334	 37.924440	-2.927599	-2.450526	 36.184240	 0.754587	-1.378229	 35.397820	-2.634230	-0.361029	 4.295510	-2.669191	-0.044713	-12.395410	-1.337854	 89.778670	 78.056270	 179.447300	-41.583620	 71.644810	 42.484420	 2.019602	-7.712682	 27.154760	-12.668980	-3.197951	 9.593718	 6.437017	 35.671460	-0.771858	 2.830251	 35.756010	-7.813440	-2.350882	 35.473990	 5.254307
 6.875236	 4.267219	-0.513843	-171.716700	-1.175478	-0.887380	 6.370482	 8.192604	-177.010000	-3.506757	-24.417530	 1.154555	 7.251446	 88.684330	-6.137644	-2.366757	 32.047000	-0.079746	 2.319581	-34.837720	 179.707600	 9.332500	-55.193580	 11.504660	-153.197600	 89.440470	 161.344900	 2.386165	 28.042780	-0.007467	-2.540954	 4.026716	 2.469697	-3.481831	-2.031398	 0.829739	-2.643741	-4.655864	-0.281584	-91.759120	 78.835830	 178.755100	 34.581730	 60.992240	-49.911790	-8.634121	-4.503341	-32.639590	 3.586867	-2.116064	-5.365477	-3.812334	 37.924440	-2.927599	-2.450526	 36.184240	 0.754587	-1.378229	 35.397820	-2.634230	-0.329749	 4.350282	-2.809529	-0.020812	-12.478080	-1.325644	 89.777310	 77.997310	 179.450000	-41.529050	 71.747270	 42.311920	 2.064442	-7.704704	 27.130410	-12.664610	-3.198311	 9.593433	 6.437017	 35.671460	-0.771858	 2.830251	 35.756010	-7.813440	-2.350882	 35.473990	 5.254307
 6.871200	 4.291728	-0.514571	-171.641300	-0.941810	-0.982199	 6.820508	 10.942840	-176.990700	-3.635854	-20.532320	 1.328356	 5.401508	 87.493530	-3.675094	-2.360777	 32.969280	-0.100950	 2.552458	-35.179810	 179.694400	 8.013952	-51.292790	 9.955689	-145.137300	 89.554130	 153.345700	 2.388658	 27.436740	-0.020472	-2.505329	 3.871904	 2.570378	-3.459829	-2.087750	 0.838567	-2.617084	-4.661071	-0.278861	-91.756130	 78.887410	 178.750500	 34.430030	 60.670100	-50.277710	-8.635859	-4.507030	-32.922060	 3.544265	-2.113350	-5.366053	-3.812334	 37.924440	-2.927599	-2.450526	 36.184240	 0.754587	-1.378229	 35.397820	-2.634230	-0.279778	 4.391055	-2.946039	 0.018140	-12.531980	-1.304229	 89.776140	 77.946480	 179.455700	-41.460980	 71.873830	 42.175110	 2.085139	-7.678696	 26.927240	-12.712210	-3.200256	 9.592311	 6.437017	 35.671460	-0.771858	 2.830251	 35.756010	-7.813440	-2.350882	 35.473990	 5.254307
 6.865890	 4.318985	-0.515993	-171.541200	-0.735194	-1.101993	 8.096286	 16.333370	-176.728600	-4.088695	-12.251460	 1.526437	 3.320073	 84.309590	 0.171041	-2.352391	 34.155080	-0.128720	 2.802190	-35.547100	 179.720900	 6.703622	-47.418790	 8.473867	-145.516700	 89.589780	 153.623500	 2.387422	 27.741420	-0.013945	-2.470280	 3.722477	 2.682209	-3.429068	-2.135324	 0.861005	-2.576320	-4.659436	-0.274480	-91.753710	 78.927430	 178.743000	 34.318280	 60.444670	-50.626670	-8.663397	-4.506427	-33.060490	 3.519191	-2.112214	-5.366231	-3.812334	 37.924440	-2.927599	-2.450526	 36.184240	 0.754587	-1.378229	 35.397820	-2.634230	-0.219876	 4.406336	-3.069549	 0.070762	-12.543970	-1.261924	 89.775310	 77.906890	 179.456000	-41.384720	 72.022060	 42.085970	 2.066901	-7.631597	 26.512980	-12.823950	-3.203826	 9.590190	 6.437017	 35.671460	-0.771858	 2.830251	 35.756010	-7.813440	-2.350882	 35.473990	 5.254307
 6.862483	 4.342565	-0.517258	-171.406100	-0.759181	-1.212151	 8.255375	 17.920220	-176.738300	-4.080094	-11.621010	 1.561990	 3.453349	 84.034050	 0.358982	-2.341213	 35.580560	-0.162918	 3.035577	-35.835600	 179.767900	 5.484709	-44.166960	 7.205966	-153.505800	 89.517860	 161.338800	 2.383291	 28.693510	 0.006600	-2.455508	 3.638486	 2.754760	-3.405468	-2.169600	 0.883824	-2.531543	-4.652603	-0.269557	-91.752560	 78.943810	 178.733000	 34.314410	 60.312970	-50.975280	-8.675388	-4.503765	-33.041440	 3.517623	-2.112101	-5.366314	-3.812334	 37.924440	-2.927599	-2.450526	 36.184240	 0.754587	-1.378229	 35.397820	-2.634230	-0.165571	 4.386473	-3.165005	 0.128789	-12.506560	-1.196172	 89.774730	 77.890980	 179.441700	-41.309540	 72.178450	 42.050030	 2.008474	-7.566471	 25.929310	-12.990820	-3.208564	 9.587267	 6.437017	 35.671460	-0.771858	 2.830251	 35.756010	-7.813440	-2.350882	 35.473990	 5.254307
 6.859216	 4.368293	-0.518317	-171.204500	-0.803346	-1.280320	 8.266528	 19.194590	-176.962600	-3.967722	-11.618090	 1.583809	 3.679759	 84.141140	 0.227411	-2.326257	 37.276230	-0.204882	 3.231302	-35.837830	 179.783000	 4.321437	-41.303110	 6.078124	-164.017400	 89.362960	 171.440800	 2.377567	 29.871900	 0.032415	-2.478283	 3.649472	 2.753153	-3.402779	-2.193982	 0.894918	-2.487459	-4.641426	-0.264622	-91.753070	 78.931660	 178.719500	 34.499400	 60.250970	-51.529490	-8.671704	-4.500255	-32.854160	 3.543653	-2.113531	-5.366001	-3.812334	 37.924440	-2.927599	-2.450526	 36.184240	 0.754587	-1.378229	 35.397820	-2.634230	-0.125645	 4.334209	-3.228782	 0.192343	-12.422670	-1.092376	 89.774480	 77.900350	 179.403500	-41.185590	 72.365510	 41.994170	 1.947195	-7.486551	 25.231630	-13.197000	-3.214753	 9.583353	 6.437017	 35.671460	-0.771858	 2.830251	 35.756010	-7.813440	-2.350882	 35.473990	 5.254307
